<?xml version="1.0" standalone="no"?>
<!DOCTYPE svg PUBLIC "-//W3C//DTD SVG 20010904//EN"
 "http://www.w3.org/TR/2001/REC-SVG-20010904/DTD/svg10.dtd">
<svg version="1.0" xmlns="http://www.w3.org/2000/svg"
 width="2048.000000pt" height="2048.000000pt" viewBox="0 0 2048.000000 2048.000000"
 preserveAspectRatio="xMidYMid meet">

<g transform="translate(0.000000,2048.000000) scale(0.100000,-0.100000)"
fill="#000000" stroke="none">
<path d="M4460 16509 c-243 -31 -428 -164 -535 -384 -97 -199 -107 -375 -34
-601 59 -185 170 -369 385 -639 71 -88 185 -236 254 -330 311 -418 369 -524
440 -803 33 -132 253 -763 357 -1022 109 -274 315 -664 449 -850 31 -44 84
-103 117 -132 64 -56 112 -122 122 -170 5 -22 -1 -45 -28 -96 -43 -81 -67
-162 -106 -352 -17 -80 -51 -217 -76 -305 -115 -404 -162 -776 -152 -1210 19
-825 262 -1539 666 -1959 197 -204 387 -278 590 -231 94 22 193 78 251 142 98
108 142 245 184 573 15 113 37 259 51 325 13 66 29 150 35 187 23 151 10 165
218 -248 109 -214 213 -408 249 -460 234 -338 613 -721 1038 -1049 50 -39 151
-131 225 -206 74 -75 165 -161 201 -191 95 -79 239 -157 239 -129 0 6 -6 11
-14 11 -7 0 -21 11 -30 24 -9 14 -51 52 -93 84 -129 98 -380 369 -539 582
-339 453 -770 1169 -1048 1741 -138 284 -313 697 -345 816 -28 102 -69 183
-94 183 -7 0 -20 -13 -30 -29 -9 -15 -74 -100 -143 -187 -137 -171 -174 -224
-223 -322 -109 -215 -167 -484 -231 -1067 -17 -154 -33 -285 -35 -291 -8 -27
-57 -25 -121 5 -138 65 -236 194 -350 460 -190 445 -266 842 -267 1386 0 489
54 804 212 1228 135 365 171 493 171 620 0 138 -47 223 -220 397 -75 75 -132
145 -183 222 -206 314 -311 557 -492 1133 -157 500 -237 721 -327 899 -84 167
-335 529 -571 824 -211 264 -297 401 -352 567 -39 114 -37 181 5 268 31 67 35
70 103 103 83 40 149 44 273 18 149 -30 436 -145 719 -286 279 -140 415 -226
584 -371 175 -149 198 -160 341 -168 63 -4 167 -14 230 -22 63 -9 204 -21 314
-27 254 -14 334 -28 533 -95 654 -220 1408 -681 2088 -1276 261 -228 621 -602
856 -889 298 -363 608 -824 838 -1248 95 -175 125 -242 206 -462 83 -227 170
-426 361 -821 190 -395 260 -546 409 -879 126 -283 243 -524 323 -665 83 -147
213 -334 260 -376 66 -58 201 -120 404 -185 436 -140 820 -279 963 -349 129
-63 347 -204 702 -457 141 -99 324 -223 406 -275 172 -108 252 -163 320 -223
49 -44 99 -110 111 -146 6 -21 6 -21 -301 -27 -551 -11 -920 -67 -1256 -193
-67 -25 -174 -61 -237 -80 -135 -41 -190 -71 -219 -118 -26 -42 -26 -60 0 -97
11 -16 37 -71 58 -123 48 -119 73 -161 183 -308 141 -187 247 -291 462 -453
358 -269 510 -360 892 -536 312 -143 497 -240 637 -333 187 -124 511 -370 612
-464 89 -83 170 -140 182 -128 3 3 -5 27 -19 53 -14 27 -41 84 -59 128 -30 74
-42 90 -178 230 -80 83 -190 205 -244 272 -117 144 -365 391 -532 529 -186
154 -310 240 -560 389 -278 167 -353 216 -471 311 -104 84 -173 163 -215 246
l-29 58 22 4 c13 3 62 12 110 21 49 9 172 39 275 66 279 75 337 86 583 114
338 38 375 46 785 163 l100 29 3 37 c3 32 -3 44 -51 99 -29 34 -96 118 -147
187 -121 162 -238 277 -485 478 -371 304 -679 534 -1000 747 -236 157 -380
237 -605 335 -91 40 -248 111 -350 157 -102 46 -230 100 -285 119 -55 20 -118
47 -140 61 -76 48 -150 165 -285 453 -54 113 -169 350 -258 526 -176 351 -315
646 -484 1024 -109 243 -136 307 -283 679 -140 353 -228 515 -494 916 -349
526 -683 938 -1096 1350 -532 533 -1111 974 -1894 1444 -338 202 -502 265
-1012 387 l-234 56 -335 20 -335 20 -53 31 c-28 17 -98 71 -155 119 -128 110
-207 165 -377 263 -417 240 -815 389 -1132 424 -109 12 -163 12 -258 0z"/>
<path d="M6580 14355 c-8 -2 -50 -9 -93 -16 -43 -6 -80 -16 -83 -20 -2 -5 2
-16 11 -26 9 -10 43 -54 76 -98 33 -44 91 -116 130 -159 56 -63 82 -106 132
-210 34 -72 80 -168 102 -214 l40 -83 51 45 c85 75 143 215 144 346 0 44 -8
71 -45 146 -54 111 -78 141 -164 201 -36 26 -79 57 -94 70 -25 20 -39 23 -110
22 -45 -1 -89 -3 -97 -4z"/>
</g>
</svg>
